<svg xmlns="http://www.w3.org/2000/svg" width="512" height="350.782" viewBox="0 0 512 350.782">
  <g id="email" transform="translate(0 -80.609)">
    <g id="Group_1" data-name="Group 1">
      <path id="Path_1" data-name="Path 1" d="M467,80.609H45a45.051,45.051,0,0,0-45,45V386.391a45.051,45.051,0,0,0,45,45H467a45.051,45.051,0,0,0,45-45V125.609A45.051,45.051,0,0,0,467,80.609Zm-5.873,30-6.006,5L273.854,266.551a27.9,27.9,0,0,1-35.708,0L56.879,115.61l-6.006-5ZM30,132.267,177.692,255.25,30,353.543ZM467,401.391H45A15.024,15.024,0,0,1,30.3,389.38l171.445-114.1,17.2,14.326a57.9,57.9,0,0,0,74.1,0l17.2-14.326L481.7,389.379A15.025,15.025,0,0,1,467,401.391Zm15-47.848L334.308,255.251,482,132.267Z" fill="#fff"/>
    </g>
  </g>
</svg>
