<svg id="Layer_1" enable-background="new 0 0 512.094 512.094" height="512" viewBox="0 0 512.094 512.094" width="512" xmlns="http://www.w3.org/2000/svg"><g><path d="m477.107 48.916c-155.486-51.829-145.927-49.335-151.059-48.69-2.396.302 8.913-3.302-142.001 47.003l-138.94-46.313c-10.345-3.451-21.06 4.262-21.06 15.179v352c0 6.887 4.407 13.001 10.94 15.179 154.978 51.659 143.895 47.983 144.828 48.24 2.532.694 4.876.734 7.224.287 1.66-.316-5.083 1.857 90.598-30.04 10.336 6.403 21.969 10.898 34.409 12.994v81.341c0 8.836 7.163 16 16 16s16-7.164 16-16v-81.341c12.439-2.096 24.073-6.591 34.409-12.994l88.531 29.513c10.353 3.449 21.061-4.262 21.061-15.179v-352c0-6.887-4.407-13.002-10.94-15.179zm-149.06 335.178c-35.29 0-64-28.71-64-64s28.71-64 64-64 64 28.71 64 64-28.71 64-64 64zm-272-345.801 112 37.333v318.269l-112-37.333zm144 37.334 112-37.333v187.142c-70.166 11.822-103.69 94.091-61.276 151.55l-50.724 16.91zm256 318.268-50.724-16.91c42.391-57.428 8.942-139.719-61.276-151.55v-187.142l112 37.333z"/></g></svg>