<svg id="pinterest" xmlns="http://www.w3.org/2000/svg" width="250.747" height="250.747" viewBox="0 0 250.747 250.747">
  <path id="Path_1" data-name="Path 1" d="M125.374,0A125.374,125.374,0,1,0,250.747,125.374,125.375,125.375,0,0,0,125.374,0ZM139.8,167.017c-11.6,0-22.5-6.269-26.239-13.388,0,0-6.239,24.741-7.549,29.515-4.651,16.879-18.331,33.763-19.4,35.146a1.426,1.426,0,0,1-2.55-.616c-.29-2.15-3.784-23.443.326-40.81,2.055-8.722,13.808-58.522,13.808-58.522a41.347,41.347,0,0,1-3.422-16.994c0-15.917,9.224-27.8,20.711-27.8,9.766,0,14.481,7.334,14.481,16.125,0,9.82-6.249,24.5-9.473,38.108-2.7,11.392,5.708,20.686,16.943,20.686,20.35,0,34.045-26.134,34.045-57.1,0-23.533-15.843-41.156-44.68-41.156-32.57,0-52.881,24.295-52.881,51.437,0,9.353,2.765,15.958,7.09,21.06,1.983,2.347,2.265,3.291,1.544,5.985-.521,1.978-1.693,6.734-2.191,8.614A3.7,3.7,0,0,1,74.986,140C59.99,133.872,53,117.44,53,98.968c0-30.508,25.726-67.09,76.756-67.09,41,0,67.993,29.669,67.993,61.524C197.748,135.542,174.32,167.017,139.8,167.017Z" fill="#fff"/>
</svg>
