<svg id="_x33_0" enable-background="new 0 0 64 64" height="512" viewBox="0 0 64 64" width="512" xmlns="http://www.w3.org/2000/svg"><g><g><path d="m50.256 1h-2.651c-2.459 0-4.751 1.159-6.208 3.12l-.729.183c-2.16.539-3.668 2.471-3.668 4.697 0 2.156 1.017 4.98 1.06 5.1l.23.633c.478-1.021 1.508-1.733 2.71-1.733h1l.004.074c.023-1.814 1.261-3.39 3.026-3.831l.97-.243c0 1.105.895 2 2 2h4c1.105 0 2 .895 2 2h1c1.239 0 2.301.751 2.759 1.822h.021l.771-2.313c.298-.895.449-1.824.449-2.766 0-4.821-3.922-8.743-8.744-8.743z" fill="rgb(0,0,0)"/></g><g><path d="m18 15v5h-5v7h14v-12z" fill="rgb(0,0,0)"/></g><g><path d="m56.569 26.895-2.412-.482c-.794-.159-1.411-.775-1.569-1.569l-.443-2.215c.923-.682 1.671-1.583 2.17-2.628h.685c2.206 0 4-1.794 4-4s-1.794-4-4-4h-.184c-.414-1.161-1.514-2-2.816-2h-4c-.551 0-1-.448-1-1s.449-1 1-1h1v-2.001h-1c-1.374 0-2.536.929-2.889 2.191l-.324.081c-1.855.464-3.229 1.928-3.644 3.728h-.143c-2.206 0-4 1.794-4 4s1.794 4 4 4h.685c.499 1.045 1.247 1.946 2.17 2.628l-.443 2.215c-.159.794-.775 1.41-1.569 1.569l-2.412.482c-1.547.309-2.912 1.063-3.987 2.105h-30.444v-21.999h32.448c.366-.805.938-1.5 1.673-2h-36.121v26h9.719l-1.5 6h-10.219v2h62v-4.262c0-3.8-2.705-7.098-6.431-7.843zm-15.569-8.895c-1.103 0-2-.897-2-2s.897-2 2-2v3c0 .34.033.672.08 1zm7.279 13h-.558l-.394-1.181.673-.538.673.538zm-2.616.151.31.93-.42 2.519-1.12-2.465zm2.184 1.849h.306l.667 4h-1.64zm2.18-.919.31-.93 1.23.984-1.12 2.465zm3.305-3.828-.911 2.004-2.576-2.061 1.861-.93c.447.45 1.003.788 1.626.987zm3.668-12.253c0 1.103-.897 2-2 2h-.08c.047-.328.08-.66.08-1v-3c1.103 0 2 .897 2 2zm-14 1v-3.877c0-1.374.928-2.567 2.258-2.907.467 1.05 1.52 1.784 2.742 1.784h4c.551 0 1 .448 1 1v4c0 2.757-2.243 5-5 5s-5-2.243-5-5zm5 7c.807 0 1.579-.144 2.301-.397l.327 1.632c.02.1.054.195.081.292l-2.709 1.355-2.709-1.354c.027-.097.061-.192.081-.292l.327-1.632c.722.252 1.494.396 2.301.396zm-3.706 3.265 1.861.93-2.576 2.061-.911-2.004c.623-.198 1.179-.536 1.626-.987zm-4.471 1.59.845-.169 3.779 8.314h-9.447v-2.262c0-2.849 2.028-5.324 4.823-5.883zm-10.542 2.145h4.659c-.598 1.125-.94 2.399-.94 3.738v2.262h-2.219zm-.562 6h-10.438l1.5-6h7.438zm-13.938-6h2.938l-1.5 6h-2.938zm46.219 6h-9.447l3.779-8.314.845.169c2.795.559 4.823 3.034 4.823 5.883z"/><path d="m27 19v2h8v-10h-12v4h2v-2h8v6z"/><path d="m19 21v-12h-12v12zm-10-10h8v8h-8z"/><path d="m56.489 53.352c1.559-1.313 2.511-3.266 2.511-5.352v-1c0-3.309-2.691-6-6-6h-2c-3.309 0-6 2.691-6 6v1c0 2.087.953 4.041 2.51 5.352-2.423.691-4.401 2.354-5.517 4.53-1.125-2.174-3.107-3.831-5.499-4.523 1.53-1.285 2.506-3.21 2.506-5.359v-1c0-3.309-2.691-6-6-6h-2c-3.309 0-6 2.691-6 6v1c0 2.149.976 4.074 2.506 5.359-2.395.693-4.378 2.352-5.502 4.53-1.123-2.178-3.108-3.842-5.503-4.536 1.526-1.285 2.499-3.207 2.499-5.353v-2c0-2.757-2.243-5-5-5h-7c-1.103 0-2 .897-2 2v5c0 2.149.976 4.074 2.506 5.359-3.752 1.085-6.506 4.544-6.506 8.641v1h62v-1c0-4.087-2.71-7.564-6.511-8.648zm-2.489 1.648c0 1.103-.897 2-2 2s-2-.897-2-2c0-.1.025-.193.039-.289.631.184 1.292.289 1.961.289s1.331-.105 1.961-.289c.014.096.039.189.039.289zm-7-7v-1c0-2.206 1.794-4 4-4h2c2.206 0 4 1.794 4 4v1c0 1.927-1.129 3.703-2.884 4.528-1.282.617-2.942.621-4.24-.004-1.747-.821-2.876-2.597-2.876-4.524zm-20 0v-1c0-2.206 1.794-4 4-4h2c2.206 0 4 1.794 4 4v1c0 2.757-2.243 5-5 5s-5-2.243-5-5zm3 7h4c3.519 0 6.432 2.614 6.92 6h-17.84c.488-3.386 3.401-6 6.92-6zm-23-7v-5h7c1.654 0 3 1.346 3 3v2c0 2.757-2.243 5-5 5s-5-2.243-5-5zm-3.929 13c.487-3.388 3.408-6 6.929-6h4c3.521 0 6.442 2.612 6.929 6zm40.007 0c.388-2.723 2.328-4.955 4.95-5.718.148 2.072 1.863 3.718 3.972 3.718 2.108 0 3.823-1.645 3.971-3.716 2.623.763 4.571 2.993 4.958 5.716z"/></g></g></svg>